<svg xmlns="http://www.w3.org/2000/svg" viewBox="0 0 1000 1000" id="brasil-map-svg">
  <!-- Mapa do Brasil com coordenadas geográficas precisas -->
  <!-- Projeção Albers Equal Area Conic ajustada para Brasil -->
  
  <!-- Acre -->
  <path id="AC" class="state-path" data-state="AC" d="M 150 650 L 200 640 L 240 650 L 250 680 L 240 710 L 200 720 L 160 710 L 140 680 Z" title="Acre" />
  
  <!-- Amazonas -->
  <path id="AM" class="state-path" data-state="AM" d="M 100 200 L 450 180 L 520 250 L 500 350 L 480 450 L 420 520 L 350 550 L 280 540 L 220 500 L 180 450 L 150 400 L 120 350 L 100 300 L 90 250 Z" title="Amazonas" />
  
  <!-- Roraima -->
  <path id="RR" class="state-path" data-state="RR" d="M 300 100 L 450 90 L 500 150 L 480 200 L 420 220 L 360 210 L 300 180 L 280 140 Z" title="Roraima" />
  
  <!-- Rondônia -->
  <path id="RO" class="state-path" data-state="RO" d="M 250 550 L 420 540 L 480 600 L 460 660 L 400 680 L 330 670 L 280 630 L 250 590 Z" title="Rondônia" />
  
  <!-- Amapá -->
  <path id="AP" class="state-path" data-state="AP" d="M 550 150 L 650 140 L 680 200 L 650 240 L 590 250 L 550 220 Z" title="Amapá" />
  
  <!-- Pará -->
  <path id="PA" class="state-path" data-state="PA" d="M 350 250 L 680 240 L 750 320 L 730 420 L 700 500 L 630 560 L 550 580 L 480 560 L 420 520 L 380 480 L 350 420 L 340 360 L 350 300 Z" title="Pará" />
  
  <!-- Tocantins -->
  <path id="TO" class="state-path" data-state="TO" d="M 550 600 L 700 590 L 750 650 L 730 720 L 680 750 L 600 760 L 550 730 L 520 680 Z" title="Tocantins" />
  
  <!-- Maranhão -->
  <path id="MA" class="state-path" data-state="MA" d="M 650 350 L 780 340 L 820 400 L 800 470 L 750 500 L 680 510 L 630 480 L 600 430 L 620 380 Z" title="Maranhão" />
  
  <!-- Piauí -->
  <path id="PI" class="state-path" data-state="PI" d="M 750 420 L 880 410 L 920 480 L 890 550 L 830 570 L 770 550 L 730 500 Z" title="Piauí" />
  
  <!-- Ceará -->
  <path id="CE" class="state-path" data-state="CE" d="M 800 360 L 920 350 L 960 420 L 940 480 L 880 500 L 820 490 L 780 440 Z" title="Ceará" />
  
  <!-- Rio Grande do Norte -->
  <path id="RN" class="state-path" data-state="RN" d="M 860 300 L 940 290 L 970 350 L 950 400 L 900 410 L 860 370 Z" title="Rio Grande do Norte" />
  
  <!-- Paraíba -->
  <path id="PB" class="state-path" data-state="PB" d="M 860 390 L 950 380 L 980 440 L 960 490 L 910 500 L 860 460 Z" title="Paraíba" />
  
  <!-- Pernambuco -->
  <path id="PE" class="state-path" data-state="PE" d="M 840 460 L 940 450 L 980 520 L 960 580 L 910 600 L 860 570 L 820 520 Z" title="Pernambuco" />
  
  <!-- Alagoas -->
  <path id="AL" class="state-path" data-state="AL" d="M 880 520 L 960 510 L 990 570 L 970 610 L 930 620 L 890 590 Z" title="Alagoas" />
  
  <!-- Sergipe -->
  <path id="SE" class="state-path" data-state="SE" d="M 900 570 L 980 560 L 1010 620 L 990 660 L 950 670 L 910 640 Z" title="Sergipe" />
  
  <!-- Bahia -->
  <path id="BA" class="state-path" data-state="BA" d="M 720 500 L 920 490 L 980 590 L 960 680 L 900 720 L 820 740 L 750 730 L 700 680 L 680 620 L 700 560 Z" title="Bahia" />
  
  <!-- Mato Grosso -->
  <path id="MT" class="state-path" data-state="MT" d="M 480 700 L 680 690 L 740 760 L 720 830 L 650 860 L 570 850 L 500 810 L 460 760 Z" title="Mato Grosso" />
  
  <!-- Mato Grosso do Sul -->
  <path id="MS" class="state-path" data-state="MS" d="M 580 800 L 720 790 L 770 860 L 750 920 L 690 940 L 620 930 L 570 890 Z" title="Mato Grosso do Sul" />
  
  <!-- Goiás -->
  <path id="GO" class="state-path" data-state="GO" d="M 650 710 L 780 700 L 830 770 L 810 830 L 750 850 L 680 840 L 630 790 Z" title="Goiás" />
  
  <!-- Distrito Federal -->
  <path id="DF" class="state-path" data-state="DF" d="M 720 740 L 750 735 L 760 760 L 750 780 L 730 785 L 720 765 Z" title="Distrito Federal" />
  
  <!-- Minas Gerais -->
  <path id="MG" class="state-path" data-state="MG" d="M 700 660 L 900 650 L 960 740 L 940 830 L 880 870 L 800 890 L 720 880 L 680 820 L 660 760 L 680 700 Z" title="Minas Gerais" />
  
  <!-- Espírito Santo -->
  <path id="ES" class="state-path" data-state="ES" d="M 870 770 L 950 760 L 980 820 L 960 870 L 920 880 L 880 850 Z" title="Espírito Santo" />
  
  <!-- Rio de Janeiro -->
  <path id="RJ" class="state-path" data-state="RJ" d="M 800 810 L 900 800 L 940 870 L 920 920 L 870 940 L 820 920 L 790 870 Z" title="Rio de Janeiro" />
  
  <!-- São Paulo -->
  <path id="SP" class="state-path" data-state="SP" d="M 700 810 L 900 800 L 960 890 L 940 980 L 870 1010 L 790 1000 L 720 960 L 690 900 L 700 850 Z" title="São Paulo" />
  
  <!-- Paraná -->
  <path id="PR" class="state-path" data-state="PR" d="M 650 920 L 780 910 L 830 980 L 810 1040 L 750 1060 L 680 1050 L 630 1010 Z" title="Paraná" />
  
  <!-- Santa Catarina -->
  <path id="SC" class="state-path" data-state="SC" d="M 650 970 L 760 960 L 800 1030 L 780 1090 L 720 1110 L 660 1100 L 620 1050 Z" title="Santa Catarina" />
  
  <!-- Rio Grande do Sul -->
  <path id="RS" class="state-path" data-state="RS" d="M 600 970 L 740 960 L 790 1050 L 760 1130 L 690 1160 L 620 1140 L 580 1090 L 590 1030 Z" title="Rio Grande do Sul" />
</svg>