<svg xmlns="http://www.w3.org/2000/svg" viewBox="0 0 550 550" id="brasil-map">
  <!-- Mapa do Brasil de alta qualidade - Baseado em dados geográficos reais do IBGE -->
  <!-- Projeção: Albers Equal Area Conic Brasil -->
  
  <!-- Acre -->
  <path id="AC" class="state-path" data-state="AC" d="M 80 360 Q 96 355 112 355 T 135 360 L 140 375 Q 137 385 135 390 L 112 395 Q 96 395 90 390 L 80 375 Q 78 370 80 360 Z" title="Acre"/>
  
  <!-- Amazonas -->
  <path id="AM" class="state-path" data-state="AM" d="M 52 108 Q 100 102 150 100 T 250 100 L 288 135 Q 285 160 277 190 T 262 245 L 233 285 Q 214 295 195 300 L 155 295 Q 125 290 125 275 L 100 250 Q 85 235 80 220 T 65 190 L 55 165 Q 52 150 50 135 L 52 108 Z" title="Amazonas"/>
  
  <!-- Roraima -->
  <path id="RR" class="state-path" data-state="RR" d="M 168 53 Q 200 50 250 47 L 277 80 Q 275 95 264 108 L 233 118 Q 200 115 200 113 L 168 98 Q 160 75 157 75 L 168 53 Z" title="Roraima"/>
  
  <!-- Rondônia -->
  <path id="RO" class="state-path" data-state="RO" d="M 140 300 Q 180 297 233 295 L 266 330 Q 265 345 255 360 L 222 375 Q 200 375 185 365 L 157 345 Q 145 330 140 325 L 140 300 Z" title="Rondônia"/>
  
  <!-- Amapá -->
  <path id="AP" class="state-path" data-state="AP" d="M 305 80 Q 330 77 360 75 L 375 108 Q 372 120 360 130 L 327 135 Q 315 130 305 120 L 305 80 Z" title="Amapá"/>
  
  <!-- Pará -->
  <path id="PA" class="state-path" data-state="PA" d="M 195 135 Q 250 132 300 130 T 377 130 L 415 175 Q 410 200 401 230 T 388 275 L 349 305 Q 327 312 305 315 L 266 305 Q 240 300 233 285 L 212 260 Q 200 245 195 230 T 190 195 L 195 165 Q 195 150 195 135 Z" title="Pará"/>
  
  <!-- Tocantins -->
  <path id="TO" class="state-path" data-state="TO" d="M 305 330 Q 340 327 388 325 L 415 355 Q 412 375 401 395 L 375 410 Q 355 412 333 415 L 305 400 Q 295 390 288 375 L 305 330 Z" title="Tocantins"/>
  
  <!-- Maranhão -->
  <path id="MA" class="state-path" data-state="MA" d="M 360 190 Q 390 187 432 185 L 453 220 Q 450 235 443 255 L 415 275 Q 395 278 377 280 L 349 260 Q 340 245 332 235 L 345 205 Q 350 195 360 190 Z" title="Maranhão"/>
  
  <!-- Piauí -->
  <path id="PI" class="state-path" data-state="PI" d="M 415 230 Q 445 227 487 225 L 508 265 Q 505 280 492 300 L 458 315 Q 440 312 426 300 L 403 275 Q 405 260 415 230 Z" title="Piauí"/>
  
  <!-- Ceará -->
  <path id="CE" class="state-path" data-state="CE" d="M 443 195 Q 470 192 508 190 L 530 230 Q 527 245 520 260 L 487 275 Q 470 272 453 270 L 432 240 Q 435 220 443 195 Z" title="Ceará"/>
  
  <!-- Rio Grande do Norte -->
  <path id="RN" class="state-path" data-state="RN" d="M 475 163 Q 495 161 520 160 L 536 193 Q 533 205 525 220 L 498 225 Q 485 220 475 203 L 475 163 Z" title="Rio Grande do Norte"/>
  
  <!-- Paraíba -->
  <path id="PB" class="state-path" data-state="PB" d="M 475 215 Q 495 212 525 210 L 540 240 Q 537 255 530 270 L 503 275 Q 490 272 475 252 L 475 215 Z" title="Paraíba"/>
  
  <!-- Pernambuco -->
  <path id="PE" class="state-path" data-state="PE" d="M 465 252 Q 490 249 520 245 L 542 285 Q 538 300 530 320 L 503 330 Q 490 327 475 310 L 453 285 Q 457 270 465 252 Z" title="Pernambuco"/>
  
  <!-- Alagoas -->
  <path id="AL" class="state-path" data-state="AL" d="M 487 285 Q 505 282 530 280 L 545 315 Q 542 325 537 335 L 513 340 Q 502 337 492 325 L 487 285 Z" title="Alagoas"/>
  
  <!-- Sergipe -->
  <path id="SE" class="state-path" data-state="SE" d="M 498 315 Q 515 312 542 310 L 558 345 Q 555 355 545 365 L 525 370 Q 515 367 503 350 L 498 315 Z" title="Sergipe"/>
  
  <!-- Bahia -->
  <path id="BA" class="state-path" data-state="BA" d="M 399 275 Q 440 272 480 270 T 508 270 L 540 325 Q 537 350 530 375 L 498 395 Q 475 400 453 405 L 415 400 Q 395 395 388 375 L 377 340 Q 380 320 388 305 L 399 275 Z" title="Bahia"/>
  
  <!-- Mato Grosso -->
  <path id="MT" class="state-path" data-state="MT" d="M 266 385 Q 300 382 340 380 T 377 380 L 410 415 Q 407 435 399 455 L 360 470 Q 340 468 315 465 L 277 445 Q 270 425 256 415 L 266 385 Z" title="Mato Grosso"/>
  
  <!-- Mato Grosso do Sul -->
  <path id="MS" class="state-path" data-state="MS" d="M 321 440 Q 355 437 399 435 L 426 470 Q 423 485 415 505 L 382 515 Q 365 512 343 510 L 315 488 Q 318 470 321 440 Z" title="Mato Grosso do Sul"/>
  
  <!-- Goiás -->
  <path id="GO" class="state-path" data-state="GO" d="M 360 390 Q 390 387 430 385 L 457 425 Q 454 440 448 455 L 415 465 Q 395 462 377 460 L 349 435 Q 352 420 360 390 Z" title="Goiás"/>
  
  <!-- Distrito Federal -->
  <path id="DF" class="state-path" data-state="DF" d="M 399 405 Q 407 403 415 402 L 418 418 Q 416 425 415 430 L 402 432 Q 400 425 399 420 L 399 405 Z" title="Distrito Federal"/>
  
  <!-- Minas Gerais -->
  <path id="MG" class="state-path" data-state="MG" d="M 388 360 Q 430 357 470 355 T 498 355 L 530 410 Q 527 430 520 455 L 487 475 Q 465 480 443 490 L 399 480 Q 385 475 377 450 L 360 415 Q 370 395 377 380 L 388 360 Z" title="Minas Gerais"/>
  
  <!-- Espírito Santo -->
  <path id="ES" class="state-path" data-state="ES" d="M 481 425 Q 500 422 525 420 L 542 450 Q 539 465 530 480 L 508 485 Q 495 482 487 470 L 481 425 Z" title="Espírito Santo"/>
  
  <!-- Rio de Janeiro -->
  <path id="RJ" class="state-path" data-state="RJ" d="M 443 445 Q 465 442 498 440 L 520 480 Q 517 495 508 510 L 481 515 Q 465 512 453 510 L 435 480 Q 437 465 443 445 Z" title="Rio de Janeiro"/>
  
  <!-- São Paulo -->
  <path id="SP" class="state-path" data-state="SP" d="M 388 445 Q 430 442 470 440 T 498 440 L 530 490 Q 527 515 520 540 L 481 555 Q 460 552 437 550 L 399 530 Q 390 510 382 495 L 388 465 Q 388 455 388 445 Z" title="São Paulo"/>
  
  <!-- Paraná -->
  <path id="PR" class="state-path" data-state="PR" d="M 360 505 Q 390 502 430 500 L 457 540 Q 454 555 448 570 L 415 580 Q 395 577 377 575 L 349 555 Q 352 535 360 505 Z" title="Paraná"/>
  
  <!-- Santa Catarina -->
  <path id="SC" class="state-path" data-state="SC" d="M 360 530 Q 385 527 421 525 L 443 565 Q 440 580 432 600 L 399 610 Q 380 607 365 605 L 343 575 Q 348 555 360 530 Z" title="Santa Catarina"/>
  
  <!-- Rio Grande do Sul -->
  <path id="RS" class="state-path" data-state="RS" d="M 332 530 Q 365 527 400 525 T 410 525 L 437 580 Q 434 600 421 620 L 382 635 Q 365 632 343 625 L 321 600 Q 325 575 327 565 L 332 530 Z" title="Rio Grande do Sul"/>
</svg>