<svg xmlns="http://www.w3.org/2000/svg" viewBox="0 0 1920 1080" width="1920" height="1080" data-dur="7.1" data-id="7.1-03"><style>@import url('https://fonts.googleapis.com/css2?family=Archivo+Black&amp;family=Space+Grotesk:wght@400;500;700&amp;family=JetBrains+Mono:wght@400;700&amp;display=block');.a{animation-duration:var(--t);animation-delay:var(--d);animation-fill-mode:both;animation-timing-function:cubic-bezier(.2,.7,.2,1)}.fade{animation-name:k-fade}.up{animation-name:k-up}.down{animation-name:k-down}.left{animation-name:k-left}.right{animation-name:k-right}.pop{animation-name:k-pop;transform-box:fill-box;transform-origin:center}.stamp{animation-name:k-stamp;transform-box:fill-box;transform-origin:center;animation-timing-function:cubic-bezier(.3,1.4,.5,1)}.draw{animation-name:k-draw;stroke-dasharray:1;stroke-dashoffset:1;animation-timing-function:cubic-bezier(.6,0,.3,1)}.draw path,.draw line,.draw polyline,.draw rect,.draw circle{stroke-dasharray:1 1}.grow{animation-name:k-grow;transform-box:fill-box;transform-origin:left center}.growY{animation-name:k-growY;transform-box:fill-box;transform-origin:center bottom}.uncover{animation-name:k-uncover;transform-box:fill-box;transform-origin:right center;animation-timing-function:cubic-bezier(.7,0,.2,1)}.dim{animation-name:k-dim}.gone{animation-name:k-gone}.shake{animation-name:k-shake;animation-timing-function:linear}.drop{animation-name:k-drop;transform-box:fill-box;transform-origin:center;animation-timing-function:cubic-bezier(.5,0,.9,.5)}.zoom{animation-name:k-zoom;transform-box:view-box;animation-timing-function:cubic-bezier(.6,0,.2,1)}.pulse{animation-name:k-pulse;transform-box:fill-box;transform-origin:center;animation-iteration-count:2}.slideL{animation-name:k-slideL}.slideR{animation-name:k-slideR}.spin{animation-name:k-spin;transform-box:view-box;animation-timing-function:linear}@keyframes k-fade{from{opacity:0}to{opacity:1}}@keyframes k-up{from{opacity:0;transform:translateY(28px)}to{opacity:1;transform:none}}@keyframes k-down{from{opacity:0;transform:translateY(-28px)}to{opacity:1;transform:none}}@keyframes k-left{from{opacity:0;transform:translateX(-48px)}to{opacity:1;transform:none}}@keyframes k-right{from{opacity:0;transform:translateX(48px)}to{opacity:1;transform:none}}@keyframes k-pop{0%{opacity:0;transform:scale(.82)}65%{opacity:1;transform:scale(1.04)}100%{opacity:1;transform:scale(1)}}@keyframes k-stamp{0%{opacity:0;transform:scale(1.9) rotate(-9deg)}100%{opacity:1;transform:scale(1) rotate(-4deg)}}@keyframes k-draw{to{stroke-dashoffset:0}}@keyframes k-grow{from{transform:scaleX(0)}to{transform:scaleX(1)}}@keyframes k-growY{from{transform:scaleY(0)}to{transform:scaleY(1)}}@keyframes k-uncover{from{transform:scaleX(1)}to{transform:scaleX(0)}}@keyframes k-dim{from{opacity:1}to{opacity:.16}}@keyframes k-gone{from{opacity:1}to{opacity:0}}@keyframes k-shake{0%,100%{transform:none}20%{transform:translateX(-14px)}40%{transform:translateX(12px)}60%{transform:translateX(-8px)}80%{transform:translateX(5px)}}@keyframes k-drop{0%{opacity:1;transform:none}100%{opacity:0;transform:translateY(260px) rotate(14deg)}}@keyframes k-zoom{from{transform:none}to{transform:var(--z)}}@keyframes k-pulse{0%,100%{transform:scale(1)}50%{transform:scale(1.08)}}@keyframes k-slideL{from{transform:translateX(0)}to{transform:translateX(var(--dx))}}@keyframes k-spin{from{transform:rotate(0)}to{transform:rotate(var(--r))}}@keyframes k-slideR{from{transform:translateX(0)}to{transform:translateX(var(--dx))}}</style><rect width="1920" height="1080" fill="#0C0C0D"/><g class="a fade" style="--d:0s;--t:0.5s;"><rect x="120" y="84" width="14" height="14" fill="#FFB800"/><text x="150" y="98" font-family="'JetBrains Mono','DejaVu Sans Mono',Menlo,monospace" font-size="22" font-weight="700" fill="#FFB800" letter-spacing="3.08" xml:space="preserve"><tspan>AULA 7.1 · ESTRUTURA E ROTEIRO</tspan></text></g><g class="a up" style="--d:0.15s;--t:0.7s;"><text x="120" y="205" font-family="'Archivo Black','Arial Black',Impact,sans-serif" font-size="70" font-weight="400" fill="#F4F1EA" xml:space="preserve"><tspan>Complexa por natureza</tspan></text></g><g class="a up" style="--d:0.6s;--t:0.7s;"><text x="120" y="380" font-family="'Archivo Black','Arial Black',Impact,sans-serif" font-size="36" font-weight="400" fill="#F4F1EA" xml:space="preserve"><tspan>Várias empresas</tspan></text></g><g class="a pop" style="--d:0.8s;--t:0.6s;"><g transform="translate(120,430) scale(1.5)" fill="none" stroke="#8A867D" stroke-width="2" stroke-linecap="round" stroke-linejoin="round"><path d="M6 42 H42 M10 42 V18 H38 V42 M6 18 L24 6 L42 18 M16 24 V36 M24 24 V36 M32 24 V36" /></g></g><g class="a pop" style="--d:0.87s;--t:0.6s;"><g transform="translate(230,430) scale(1.5)" fill="none" stroke="#8A867D" stroke-width="2" stroke-linecap="round" stroke-linejoin="round"><path d="M6 42 H42 M10 42 V18 H38 V42 M6 18 L24 6 L42 18 M16 24 V36 M24 24 V36 M32 24 V36" /></g></g><g class="a pop" style="--d:0.94s;--t:0.6s;"><g transform="translate(340,430) scale(1.5)" fill="none" stroke="#8A867D" stroke-width="2" stroke-linecap="round" stroke-linejoin="round"><path d="M6 42 H42 M10 42 V18 H38 V42 M6 18 L24 6 L42 18 M16 24 V36 M24 24 V36 M32 24 V36" /></g></g><g class="a pop" style="--d:1.01s;--t:0.6s;"><g transform="translate(120,540) scale(1.5)" fill="none" stroke="#8A867D" stroke-width="2" stroke-linecap="round" stroke-linejoin="round"><path d="M6 42 H42 M10 42 V18 H38 V42 M6 18 L24 6 L42 18 M16 24 V36 M24 24 V36 M32 24 V36" /></g></g><g class="a pop" style="--d:1.08s;--t:0.6s;"><g transform="translate(230,540) scale(1.5)" fill="none" stroke="#FFB800" stroke-width="2" stroke-linecap="round" stroke-linejoin="round"><path d="M6 42 H42 M10 42 V18 H38 V42 M6 18 L24 6 L42 18 M16 24 V36 M24 24 V36 M32 24 V36" /></g></g><g class="a pop" style="--d:1.15s;--t:0.6s;"><g transform="translate(340,540) scale(1.5)" fill="none" stroke="#8A867D" stroke-width="2" stroke-linecap="round" stroke-linejoin="round"><path d="M6 42 H42 M10 42 V18 H38 V42 M6 18 L24 6 L42 18 M16 24 V36 M24 24 V36 M32 24 V36" /></g></g><g class="a pop" style="--d:1.22s;--t:0.6s;"><g transform="translate(120,650) scale(1.5)" fill="none" stroke="#8A867D" stroke-width="2" stroke-linecap="round" stroke-linejoin="round"><path d="M6 42 H42 M10 42 V18 H38 V42 M6 18 L24 6 L42 18 M16 24 V36 M24 24 V36 M32 24 V36" /></g></g><g class="a pop" style="--d:1.29s;--t:0.6s;"><g transform="translate(230,650) scale(1.5)" fill="none" stroke="#8A867D" stroke-width="2" stroke-linecap="round" stroke-linejoin="round"><path d="M6 42 H42 M10 42 V18 H38 V42 M6 18 L24 6 L42 18 M16 24 V36 M24 24 V36 M32 24 V36" /></g></g><g class="a pop" style="--d:1.36s;--t:0.6s;"><g transform="translate(340,650) scale(1.5)" fill="none" stroke="#8A867D" stroke-width="2" stroke-linecap="round" stroke-linejoin="round"><path d="M6 42 H42 M10 42 V18 H38 V42 M6 18 L24 6 L42 18 M16 24 V36 M24 24 V36 M32 24 V36" /></g></g><g class="a up" style="--d:1.3s;--t:0.7s;"><text x="550" y="380" font-family="'Archivo Black','Arial Black',Impact,sans-serif" font-size="36" font-weight="400" fill="#F4F1EA" xml:space="preserve"><tspan>Vários anos</tspan></text></g><g class="a pop" style="--d:1.5s;--t:0.6s;"><g transform="translate(550,430) scale(1.5)" fill="none" stroke="#8A867D" stroke-width="2" stroke-linecap="round" stroke-linejoin="round"><rect x="6" y="9" width="36" height="33" rx="2"/><path d="M6 18 H42 M15 5 V13 M33 5 V13" /></g></g><g class="a pop" style="--d:1.57s;--t:0.6s;"><g transform="translate(660,430) scale(1.5)" fill="none" stroke="#8A867D" stroke-width="2" stroke-linecap="round" stroke-linejoin="round"><rect x="6" y="9" width="36" height="33" rx="2"/><path d="M6 18 H42 M15 5 V13 M33 5 V13" /></g></g><g class="a pop" style="--d:1.64s;--t:0.6s;"><g transform="translate(770,430) scale(1.5)" fill="none" stroke="#8A867D" stroke-width="2" stroke-linecap="round" stroke-linejoin="round"><rect x="6" y="9" width="36" height="33" rx="2"/><path d="M6 18 H42 M15 5 V13 M33 5 V13" /></g></g><g class="a pop" style="--d:1.71s;--t:0.6s;"><g transform="translate(550,540) scale(1.5)" fill="none" stroke="#8A867D" stroke-width="2" stroke-linecap="round" stroke-linejoin="round"><rect x="6" y="9" width="36" height="33" rx="2"/><path d="M6 18 H42 M15 5 V13 M33 5 V13" /></g></g><g class="a pop" style="--d:1.78s;--t:0.6s;"><g transform="translate(660,540) scale(1.5)" fill="none" stroke="#FFB800" stroke-width="2" stroke-linecap="round" stroke-linejoin="round"><rect x="6" y="9" width="36" height="33" rx="2"/><path d="M6 18 H42 M15 5 V13 M33 5 V13" /></g></g><g class="a pop" style="--d:1.85s;--t:0.6s;"><g transform="translate(770,540) scale(1.5)" fill="none" stroke="#8A867D" stroke-width="2" stroke-linecap="round" stroke-linejoin="round"><rect x="6" y="9" width="36" height="33" rx="2"/><path d="M6 18 H42 M15 5 V13 M33 5 V13" /></g></g><g class="a pop" style="--d:1.92s;--t:0.6s;"><g transform="translate(550,650) scale(1.5)" fill="none" stroke="#8A867D" stroke-width="2" stroke-linecap="round" stroke-linejoin="round"><rect x="6" y="9" width="36" height="33" rx="2"/><path d="M6 18 H42 M15 5 V13 M33 5 V13" /></g></g><g class="a pop" style="--d:1.99s;--t:0.6s;"><g transform="translate(660,650) scale(1.5)" fill="none" stroke="#8A867D" stroke-width="2" stroke-linecap="round" stroke-linejoin="round"><rect x="6" y="9" width="36" height="33" rx="2"/><path d="M6 18 H42 M15 5 V13 M33 5 V13" /></g></g><g class="a pop" style="--d:2.06s;--t:0.6s;"><g transform="translate(770,650) scale(1.5)" fill="none" stroke="#8A867D" stroke-width="2" stroke-linecap="round" stroke-linejoin="round"><rect x="6" y="9" width="36" height="33" rx="2"/><path d="M6 18 H42 M15 5 V13 M33 5 V13" /></g></g><g class="a up" style="--d:2s;--t:0.7s;"><text x="980" y="380" font-family="'Archivo Black','Arial Black',Impact,sans-serif" font-size="36" font-weight="400" fill="#F4F1EA" xml:space="preserve"><tspan>Várias pessoas</tspan></text></g><g class="a pop" style="--d:2.2s;--t:0.6s;"><g transform="translate(980,430) scale(1.5)" fill="none" stroke="#8A867D" stroke-width="2" stroke-linecap="round" stroke-linejoin="round"><circle cx="24" cy="15" r="8"/><path d="M8 43 C8 31 40 31 40 43" /></g></g><g class="a pop" style="--d:2.27s;--t:0.6s;"><g transform="translate(1090,430) scale(1.5)" fill="none" stroke="#8A867D" stroke-width="2" stroke-linecap="round" stroke-linejoin="round"><circle cx="24" cy="15" r="8"/><path d="M8 43 C8 31 40 31 40 43" /></g></g><g class="a pop" style="--d:2.34s;--t:0.6s;"><g transform="translate(1200,430) scale(1.5)" fill="none" stroke="#8A867D" stroke-width="2" stroke-linecap="round" stroke-linejoin="round"><circle cx="24" cy="15" r="8"/><path d="M8 43 C8 31 40 31 40 43" /></g></g><g class="a pop" style="--d:2.41s;--t:0.6s;"><g transform="translate(980,540) scale(1.5)" fill="none" stroke="#8A867D" stroke-width="2" stroke-linecap="round" stroke-linejoin="round"><circle cx="24" cy="15" r="8"/><path d="M8 43 C8 31 40 31 40 43" /></g></g><g class="a pop" style="--d:2.48s;--t:0.6s;"><g transform="translate(1090,540) scale(1.5)" fill="none" stroke="#FFB800" stroke-width="2" stroke-linecap="round" stroke-linejoin="round"><circle cx="24" cy="15" r="8"/><path d="M8 43 C8 31 40 31 40 43" /></g></g><g class="a pop" style="--d:2.55s;--t:0.6s;"><g transform="translate(1200,540) scale(1.5)" fill="none" stroke="#8A867D" stroke-width="2" stroke-linecap="round" stroke-linejoin="round"><circle cx="24" cy="15" r="8"/><path d="M8 43 C8 31 40 31 40 43" /></g></g><g class="a pop" style="--d:2.62s;--t:0.6s;"><g transform="translate(980,650) scale(1.5)" fill="none" stroke="#8A867D" stroke-width="2" stroke-linecap="round" stroke-linejoin="round"><circle cx="24" cy="15" r="8"/><path d="M8 43 C8 31 40 31 40 43" /></g></g><g class="a pop" style="--d:2.69s;--t:0.6s;"><g transform="translate(1090,650) scale(1.5)" fill="none" stroke="#8A867D" stroke-width="2" stroke-linecap="round" stroke-linejoin="round"><circle cx="24" cy="15" r="8"/><path d="M8 43 C8 31 40 31 40 43" /></g></g><g class="a pop" style="--d:2.76s;--t:0.6s;"><g transform="translate(1200,650) scale(1.5)" fill="none" stroke="#8A867D" stroke-width="2" stroke-linecap="round" stroke-linejoin="round"><circle cx="24" cy="15" r="8"/><path d="M8 43 C8 31 40 31 40 43" /></g></g><g class="a up" style="--d:2.7s;--t:0.7s;"><text x="1410" y="380" font-family="'Archivo Black','Arial Black',Impact,sans-serif" font-size="36" font-weight="400" fill="#F4F1EA" xml:space="preserve"><tspan>Vários documentos</tspan></text></g><g class="a pop" style="--d:2.9s;--t:0.6s;"><g transform="translate(1410,430) scale(1.5)" fill="none" stroke="#8A867D" stroke-width="2" stroke-linecap="round" stroke-linejoin="round"><path d="M12 5 H30 L38 13 V43 H12 Z M30 5 V13 H38 M18 22 H32 M18 29 H32 M18 36 H27" /></g></g><g class="a pop" style="--d:2.97s;--t:0.6s;"><g transform="translate(1520,430) scale(1.5)" fill="none" stroke="#8A867D" stroke-width="2" stroke-linecap="round" stroke-linejoin="round"><path d="M12 5 H30 L38 13 V43 H12 Z M30 5 V13 H38 M18 22 H32 M18 29 H32 M18 36 H27" /></g></g><g class="a pop" style="--d:3.04s;--t:0.6s;"><g transform="translate(1630,430) scale(1.5)" fill="none" stroke="#8A867D" stroke-width="2" stroke-linecap="round" stroke-linejoin="round"><path d="M12 5 H30 L38 13 V43 H12 Z M30 5 V13 H38 M18 22 H32 M18 29 H32 M18 36 H27" /></g></g><g class="a pop" style="--d:3.11s;--t:0.6s;"><g transform="translate(1410,540) scale(1.5)" fill="none" stroke="#8A867D" stroke-width="2" stroke-linecap="round" stroke-linejoin="round"><path d="M12 5 H30 L38 13 V43 H12 Z M30 5 V13 H38 M18 22 H32 M18 29 H32 M18 36 H27" /></g></g><g class="a pop" style="--d:3.18s;--t:0.6s;"><g transform="translate(1520,540) scale(1.5)" fill="none" stroke="#FFB800" stroke-width="2" stroke-linecap="round" stroke-linejoin="round"><path d="M12 5 H30 L38 13 V43 H12 Z M30 5 V13 H38 M18 22 H32 M18 29 H32 M18 36 H27" /></g></g><g class="a pop" style="--d:3.25s;--t:0.6s;"><g transform="translate(1630,540) scale(1.5)" fill="none" stroke="#8A867D" stroke-width="2" stroke-linecap="round" stroke-linejoin="round"><path d="M12 5 H30 L38 13 V43 H12 Z M30 5 V13 H38 M18 22 H32 M18 29 H32 M18 36 H27" /></g></g><g class="a pop" style="--d:3.32s;--t:0.6s;"><g transform="translate(1410,650) scale(1.5)" fill="none" stroke="#8A867D" stroke-width="2" stroke-linecap="round" stroke-linejoin="round"><path d="M12 5 H30 L38 13 V43 H12 Z M30 5 V13 H38 M18 22 H32 M18 29 H32 M18 36 H27" /></g></g><g class="a pop" style="--d:3.39s;--t:0.6s;"><g transform="translate(1520,650) scale(1.5)" fill="none" stroke="#8A867D" stroke-width="2" stroke-linecap="round" stroke-linejoin="round"><path d="M12 5 H30 L38 13 V43 H12 Z M30 5 V13 H38 M18 22 H32 M18 29 H32 M18 36 H27" /></g></g><g class="a pop" style="--d:3.46s;--t:0.6s;"><g transform="translate(1630,650) scale(1.5)" fill="none" stroke="#8A867D" stroke-width="2" stroke-linecap="round" stroke-linejoin="round"><path d="M12 5 H30 L38 13 V43 H12 Z M30 5 V13 H38 M18 22 H32 M18 29 H32 M18 36 H27" /></g></g><g class="a up" style="--d:4s;--t:0.7s;"><text x="120" y="880" font-family="'Space Grotesk','Helvetica Neue',Arial,sans-serif" font-size="40" font-weight="700" fill="#F4F1EA" xml:space="preserve"><tspan>O erro mais comum: contar a apuração </tspan><tspan fill="#FF6B5E">na ordem em que você fez</tspan><tspan>.</tspan></text></g></svg>